<svg width="32" height="32" viewBox="0 0 32 32" fill="none" xmlns="http://www.w3.org/2000/svg">
<path d="M3.32672 3.32673C7.76235 -1.10891 24.2376 -1.10891 28.6733 3.32673C33.1089 7.76238 33.1089 24.2376 28.6733 28.6733C24.2376 33.1089 7.76234 33.1089 3.32672 28.6733C-1.1089 24.2376 -1.10891 7.76238 3.32672 3.32673Z" fill="#3B5998"/>
<path fill-rule="evenodd" clip-rule="evenodd" d="M17.4909 26V16.8772H20.4388L20.8804 13.3217H17.4909V11.0518C17.4909 10.0225 17.766 9.32094 19.1873 9.32094L21 9.32018V6.14007C20.1226 6.04372 19.2409 5.99701 18.3586 6.00015C15.7451 6.00015 13.9559 7.65657 13.9559 10.6998V13.3217H11V16.8772H13.9559V26H17.4913H17.4909Z" fill="white"/>
</svg>
