<?xml version="1.0" encoding="UTF-8"?>
<svg xmlns="http://www.w3.org/2000/svg" xmlns:xlink="http://www.w3.org/1999/xlink" width="45px" height="45px" viewBox="0 0 45 45" version="1.1">
<g id="surface1">
<path style=" stroke:none;fill-rule:nonzero;fill:rgb(25.882353%,52.156863%,95.686275%);fill-opacity:1;" d="M 42.300781 22.96875 C 42.300781 21.507812 42.167969 20.101562 41.925781 18.75 L 22.5 18.75 L 22.5 26.738281 L 33.601562 26.738281 C 33.113281 29.304688 31.648438 31.480469 29.457031 32.945312 L 29.457031 38.136719 L 36.148438 38.136719 C 40.050781 34.539062 42.300781 29.25 42.300781 22.96875 Z M 42.300781 22.96875 "/>
<path style=" stroke:none;fill-rule:nonzero;fill:rgb(20.392157%,65.882353%,32.54902%);fill-opacity:1;" d="M 22.5 43.125 C 28.070312 43.125 32.738281 41.289062 36.148438 38.136719 L 29.457031 32.945312 C 27.617188 34.179688 25.273438 34.929688 22.5 34.929688 C 17.136719 34.929688 12.582031 31.3125 10.949219 26.4375 L 4.085938 26.4375 L 4.085938 31.761719 C 7.480469 38.492188 14.4375 43.125 22.5 43.125 Z M 22.5 43.125 "/>
<path style=" stroke:none;fill-rule:nonzero;fill:rgb(98.431373%,73.72549%,1.960784%);fill-opacity:1;" d="M 10.949219 26.417969 C 10.539062 25.179688 10.292969 23.867188 10.292969 22.5 C 10.292969 21.132812 10.539062 19.820312 10.949219 18.582031 L 10.949219 13.257812 L 4.085938 13.257812 C 2.679688 16.03125 1.875 19.164062 1.875 22.5 C 1.875 25.835938 2.679688 28.96875 4.085938 31.742188 L 9.429688 27.582031 Z M 10.949219 26.417969 "/>
<path style=" stroke:none;fill-rule:nonzero;fill:rgb(91.764706%,26.27451%,20.784314%);fill-opacity:1;" d="M 22.5 10.085938 C 25.539062 10.085938 28.238281 11.136719 30.394531 13.164062 L 36.300781 7.257812 C 32.71875 3.917969 28.070312 1.875 22.5 1.875 C 14.4375 1.875 7.480469 6.507812 4.085938 13.257812 L 10.949219 18.582031 C 12.582031 13.707031 17.136719 10.085938 22.5 10.085938 Z M 22.5 10.085938 "/>
</g>
</svg>
