<svg width="32" height="32" viewBox="0 0 32 32" fill="none" xmlns="http://www.w3.org/2000/svg">
<path d="M3.32672 3.32673C7.76235 -1.10891 24.2376 -1.10891 28.6733 3.32673C33.1089 7.76238 33.1089 24.2376 28.6733 28.6733C24.2376 33.1089 7.76234 33.1089 3.32672 28.6733C-1.1089 24.2376 -1.10891 7.76238 3.32672 3.32673Z" fill="#EB722E"/>
<path fill-rule="evenodd" clip-rule="evenodd" d="M15.9063 16.326C16.9484 16.3257 17.9671 16.0227 18.8334 15.4552C19.6998 14.8877 20.375 14.0812 20.7736 13.1377C21.1721 12.1942 21.2762 11.1561 21.0727 10.1546C20.8692 9.15312 20.3671 8.23328 19.6301 7.51139C18.893 6.7895 17.954 6.29798 16.9319 6.09898C15.9097 5.89999 14.8503 6.00247 13.8876 6.39345C12.9249 6.78442 12.1021 7.44635 11.5233 8.29551C10.9445 9.14468 10.6357 10.1429 10.6359 11.1641C10.6376 12.533 11.1934 13.8454 12.1815 14.8131C13.1696 15.7809 14.5092 16.325 15.9063 16.326ZM15.9063 9.02613C16.3377 9.02625 16.7594 9.1517 17.1181 9.38664C17.4768 9.62158 17.7563 9.95545 17.9213 10.346C18.0863 10.7366 18.1295 11.1664 18.0452 11.581C17.961 11.9956 17.7532 12.3764 17.4482 12.6753C17.1431 12.9742 16.7544 13.1778 16.3313 13.2602C15.9081 13.3427 15.4695 13.3004 15.071 13.1386C14.6724 12.9769 14.3317 12.703 14.0919 12.3515C13.8522 12 13.7242 11.5868 13.7241 11.1641C13.7247 10.5972 13.9548 10.0537 14.3639 9.65287C14.7731 9.25204 15.3278 9.02664 15.9063 9.02613ZM18.0386 20.5383C19.1228 20.2964 20.1575 19.8768 21.0991 19.2971C21.4448 19.0829 21.6897 18.7431 21.78 18.3522C21.8704 17.9613 21.7988 17.5512 21.5809 17.212C21.3631 16.8727 21.0168 16.632 20.618 16.5427C20.2193 16.4533 19.8006 16.5226 19.4539 16.7353C18.3901 17.3871 17.1607 17.7327 15.906 17.7327C14.6513 17.7327 13.4219 17.3871 12.3581 16.7353C12.0114 16.5248 11.5939 16.4572 11.1966 16.5473C10.7993 16.6373 10.4544 16.8776 10.2372 17.2158C10.0201 17.554 9.94822 17.9626 10.0373 18.3525C10.1265 18.7425 10.3693 19.082 10.713 19.2971C11.6546 19.8768 12.6893 20.2966 13.7734 20.5389L10.8269 23.4257C10.5454 23.7111 10.3896 24.0934 10.3931 24.4904C10.3965 24.8873 10.5591 25.2669 10.8456 25.5476C11.1321 25.8282 11.5196 25.9872 11.9247 25.9905C12.3298 25.9937 12.7199 25.8408 13.0111 25.5649L15.9052 22.7282L18.8018 25.5642C19.0919 25.8447 19.4836 26.0014 19.8912 26C20.2988 25.9986 20.6893 25.8393 20.9774 25.5569C21.2656 25.2745 21.4282 24.8918 21.4295 24.4925C21.4309 24.0931 21.271 23.7094 20.9847 23.4251L18.0386 20.5383Z" fill="white"/>
</svg>
