<svg width="32" height="32" viewBox="0 0 32 32" fill="none" xmlns="http://www.w3.org/2000/svg">
<path d="M3.32672 3.32673C7.76235 -1.10891 24.2376 -1.10891 28.6733 3.32673C33.1089 7.76238 33.1089 24.2376 28.6733 28.6733C24.2376 33.1089 7.76234 33.1089 3.32672 28.6733C-1.1089 24.2376 -1.10891 7.76238 3.32672 3.32673Z" fill="url(#paint0_linear)"/>
<path fill-rule="evenodd" clip-rule="evenodd" d="M7.30615 14.8879C12.4064 12.6299 15.8074 11.1413 17.5091 10.4221C22.3677 8.36862 23.3773 8.0119 24.0354 8.00013C24.1801 7.99753 24.5037 8.03398 24.7133 8.20682C24.8903 8.35275 24.939 8.5499 24.9623 8.68826C24.9856 8.82663 25.0146 9.14183 24.9916 9.38811C24.7283 12.1992 23.589 19.021 23.0094 22.1694C22.7642 23.5017 22.2813 23.9484 21.8138 23.9921C20.7978 24.0871 20.0263 23.3098 19.0422 22.6543C17.5024 21.6287 16.6325 20.9902 15.1378 19.9893C13.4105 18.8327 14.5303 18.1969 15.5147 17.158C15.7723 16.8861 20.2488 12.7487 20.3354 12.3733C20.3463 12.3264 20.3563 12.1514 20.254 12.059C20.1517 11.9666 20.0007 11.9982 19.8918 12.0234C19.7373 12.059 17.2775 13.7111 12.5121 16.9798C11.8139 17.467 11.1815 17.7044 10.6148 17.6919C9.99014 17.6782 8.78851 17.333 7.89523 17.038C6.79958 16.6761 5.92878 16.4847 6.0046 15.8701C6.0441 15.55 6.47795 15.2226 7.30615 14.8879Z" fill="white"/>
<defs>
<linearGradient id="paint0_linear" x1="32" y1="0" x2="0" y2="32" gradientUnits="userSpaceOnUse">
<stop stop-color="#229FDA"/>
<stop offset="1" stop-color="#29A9EB"/>
</linearGradient>
</defs>
</svg>
