<svg width="32" height="32" viewBox="0 0 32 32" fill="none" xmlns="http://www.w3.org/2000/svg">
<path d="M3.32672 3.32673C7.76235 -1.10891 24.2376 -1.10891 28.6733 3.32673C33.1089 7.76238 33.1089 24.2376 28.6733 28.6733C24.2376 33.1089 7.76234 33.1089 3.32672 28.6733C-1.1089 24.2376 -1.10891 7.76238 3.32672 3.32673Z" fill="#4680C2"/>
<path fill-rule="evenodd" clip-rule="evenodd" d="M15.7856 21.8633H16.9809C16.9809 21.8633 17.3419 21.8253 17.5265 21.6353C17.6961 21.4608 17.6907 21.1333 17.6907 21.1333C17.6907 21.1333 17.6674 19.5997 18.4116 19.3737C19.1457 19.1512 20.0882 20.8559 21.0869 21.5116C21.8423 22.0075 22.4161 21.899 22.4161 21.899L25.0871 21.8633C25.0871 21.8633 26.4843 21.7807 25.8217 20.7307C25.7674 20.6448 25.4354 19.9538 23.8357 18.5337C22.1609 17.0475 22.3854 17.2879 24.4028 14.7171C25.6313 13.1514 26.1224 12.1957 25.9687 11.7864C25.8225 11.3964 24.9187 11.4993 24.9187 11.4993L21.9115 11.5173C21.7781 11.5021 21.6431 11.5248 21.5231 11.5826C21.409 11.6625 21.3177 11.7686 21.2579 11.8912C20.9464 12.6638 20.5751 13.4132 20.1472 14.133C18.8081 16.307 18.2725 16.4222 18.0537 16.287C17.5445 15.9722 17.6717 15.0231 17.6717 14.3487C17.6717 12.2415 18.0058 11.3631 17.0208 11.1357C16.694 11.0603 16.4532 11.0106 15.6171 11.0023C14.544 10.9923 13.636 11.0055 13.1221 11.2464C12.78 11.4062 12.5159 11.7635 12.6769 11.7841C12.8752 11.8091 13.3256 11.9001 13.5642 12.2105C13.8725 12.6115 13.8616 13.5117 13.8616 13.5117C13.8616 13.5117 14.0391 15.9919 13.4481 16.2999C13.0428 16.5112 12.4868 16.0803 11.2929 14.1073C10.8876 13.4211 10.529 12.7106 10.2194 11.9802C10.1643 11.8562 10.0794 11.7464 9.97147 11.6598C9.83166 11.5712 9.67453 11.5105 9.50954 11.4815L6.65171 11.4993C6.65171 11.4993 6.22287 11.5108 6.06534 11.689C5.92515 11.8477 6.05417 12.1757 6.05417 12.1757C6.05417 12.1757 8.29129 17.1802 10.8249 19.7023C13.1482 22.0148 15.7858 21.8631 15.7858 21.8631L15.7856 21.8633Z" fill="white"/>
</svg>
