<?xml version="1.0" encoding="UTF-8"?>
<svg xmlns="http://www.w3.org/2000/svg" xmlns:xlink="http://www.w3.org/1999/xlink" width="45px" height="45px" viewBox="0 0 45 45" version="1.1">
<g id="surface1">
<path style=" stroke:none;fill-rule:evenodd;fill:rgb(29.803922%,45.882353%,63.921569%);fill-opacity:1;" d="M 7.90625 1.40625 L 37.09375 1.40625 C 40.683594 1.40625 43.59375 4.316406 43.59375 7.90625 L 43.59375 37.09375 C 43.59375 40.683594 40.683594 43.59375 37.09375 43.59375 L 7.90625 43.59375 C 4.316406 43.59375 1.40625 40.683594 1.40625 37.09375 L 1.40625 7.90625 C 1.40625 4.316406 4.316406 1.40625 7.90625 1.40625 "/>
<path style=" stroke:none;fill-rule:evenodd;fill:rgb(100%,100%,100%);fill-opacity:1;" d="M 22.144531 30.9375 L 23.871094 30.9375 C 23.871094 30.9375 24.394531 30.882812 24.660156 30.59375 C 24.902344 30.332031 24.894531 29.835938 24.894531 29.835938 C 24.894531 29.835938 24.863281 27.519531 25.9375 27.179688 C 26.996094 26.84375 28.355469 29.417969 29.800781 30.40625 C 30.890625 31.15625 31.71875 30.992188 31.71875 30.992188 L 35.574219 30.9375 C 35.574219 30.9375 37.589844 30.8125 36.632812 29.230469 C 36.554688 29.097656 36.078125 28.054688 33.765625 25.910156 C 31.347656 23.667969 31.671875 24.03125 34.585938 20.148438 C 36.359375 17.785156 37.070312 16.34375 36.847656 15.722656 C 36.636719 15.136719 35.332031 15.289062 35.332031 15.289062 L 30.988281 15.316406 C 30.988281 15.316406 30.667969 15.273438 30.429688 15.417969 C 30.195312 15.554688 30.046875 15.882812 30.046875 15.882812 C 30.046875 15.882812 29.359375 17.710938 28.441406 19.265625 C 26.511719 22.550781 25.738281 22.722656 25.421875 22.519531 C 24.6875 22.042969 24.871094 20.609375 24.871094 19.59375 C 24.871094 16.410156 25.351562 15.085938 23.929688 14.742188 C 23.457031 14.628906 23.109375 14.550781 21.902344 14.539062 C 20.355469 14.523438 19.042969 14.546875 18.300781 14.910156 C 17.808594 15.152344 17.425781 15.691406 17.660156 15.71875 C 17.945312 15.757812 18.59375 15.894531 18.941406 16.363281 C 19.382812 16.96875 19.367188 18.328125 19.367188 18.328125 C 19.367188 18.328125 19.625 22.074219 18.773438 22.539062 C 18.1875 22.859375 17.382812 22.207031 15.660156 19.230469 C 14.777344 17.703125 14.109375 16.015625 14.109375 16.015625 C 14.109375 16.015625 13.984375 15.703125 13.753906 15.53125 C 13.476562 15.328125 13.085938 15.265625 13.085938 15.265625 L 8.960938 15.289062 C 8.960938 15.289062 8.34375 15.308594 8.113281 15.578125 C 7.910156 15.816406 8.097656 16.3125 8.097656 16.3125 C 8.097656 16.3125 11.328125 23.867188 14.984375 27.675781 C 18.339844 31.167969 22.144531 30.9375 22.144531 30.9375 "/>
</g>
</svg>
