<svg width="32" height="32" viewBox="0 0 32 32" fill="none" xmlns="http://www.w3.org/2000/svg">
<path d="M3.32672 3.32673C7.76235 -1.10891 24.2376 -1.10891 28.6733 3.32673C33.1089 7.76238 33.1089 24.2376 28.6733 28.6733C24.2376 33.1089 7.76234 33.1089 3.32672 28.6733C-1.1089 24.2376 -1.10891 7.76238 3.32672 3.32673Z" fill="#25D366"/>
<path fill-rule="evenodd" clip-rule="evenodd" d="M23.9327 8.05346C21.963 6.08268 19.3368 5 16.5401 5C10.7814 5 6.09021 9.66999 6.0852 15.4027C6.0852 17.2388 6.56635 19.0249 7.47852 20.6066L6 26L11.5432 24.5531C13.0718 25.3813 14.7909 25.8204 16.5401 25.8204H16.5451C22.3038 25.8204 26.995 21.1504 27 15.4127C26.995 12.6336 25.9074 10.0192 23.9327 8.05346ZM16.5401 24.0592C14.9764 24.0592 13.4477 23.6401 12.1146 22.8517L11.7988 22.6622L8.51098 23.5203L9.38807 20.3272L9.18258 19.9979C8.3105 18.6208 7.85442 17.0292 7.85442 15.3977C7.85442 10.6379 11.7537 6.75624 16.5451 6.75624C18.8656 6.75624 21.0458 7.6593 22.6897 9.29081C24.3286 10.9273 25.2308 13.0976 25.2308 15.4077C25.2258 20.1825 21.3265 24.0592 16.5401 24.0592ZM21.3064 17.583C21.0458 17.4533 19.7628 16.8247 19.5222 16.7349C19.2816 16.65 19.1062 16.6051 18.9358 16.8646C18.7604 17.124 18.2592 17.7128 18.1088 17.8824C17.9585 18.057 17.8031 18.077 17.5425 17.9473C17.2819 17.8175 16.4399 17.5431 15.4425 16.655C14.6656 15.9665 14.1444 15.1133 13.989 14.8539C13.8387 14.5944 13.974 14.4547 14.1043 14.325C14.2196 14.2103 14.3649 14.0207 14.4952 13.871C14.6255 13.7213 14.6706 13.6115 14.7558 13.4369C14.8411 13.2623 14.801 13.1126 14.7358 12.9829C14.6706 12.8532 14.1494 11.5709 13.9289 11.052C13.7184 10.5431 13.5029 10.613 13.3425 10.608C13.1921 10.598 13.0167 10.598 12.8413 10.598C12.6659 10.598 12.3852 10.6629 12.1446 10.9223C11.9041 11.1818 11.2325 11.8104 11.2325 13.0927C11.2325 14.3749 12.1697 15.6073 12.3 15.7819C12.4303 15.9565 14.1394 18.5809 16.7606 19.7085C17.3821 19.9779 17.8683 20.1376 18.2492 20.2573C18.8757 20.4569 19.442 20.4269 19.8931 20.3621C20.3943 20.2872 21.4368 19.7334 21.6573 19.1247C21.8728 18.516 21.8728 17.9971 21.8076 17.8874C21.7425 17.7776 21.5671 17.7128 21.3064 17.583Z" fill="white"/>
</svg>
