<svg width="32" height="32" viewBox="0 0 32 32" fill="none" xmlns="http://www.w3.org/2000/svg">
<path d="M3.32672 3.32673C7.76235 -1.10891 24.2376 -1.10891 28.6733 3.32673C33.1089 7.76238 33.1089 24.2376 28.6733 28.6733C24.2376 33.1089 7.76234 33.1089 3.32672 28.6733C-1.1089 24.2376 -1.10891 7.76238 3.32672 3.32673Z" fill="#7360F2"/>
<path d="M19 15C18.9349 13.7307 18.2682 13.064 17 13" stroke="white" stroke-width="2" stroke-linecap="round" stroke-linejoin="round"/>
<path d="M21.9987 15C22.0238 13.6229 21.681 12.4724 20.9703 11.5483C20.2564 10.621 19.2682 10.1104 18 10" stroke="white" stroke-width="2" stroke-linecap="round" stroke-linejoin="round"/>
<path d="M25 14C24.9828 11.8359 24.3076 10.1315 22.9743 8.88686C21.6411 7.64218 19.983 7.01323 18 7" stroke="white" stroke-width="2" stroke-linecap="round" stroke-linejoin="round"/>
<path d="M16.8263 20.7957C16.8263 20.7957 17.4625 20.8523 17.8051 20.4069L18.4731 19.52C18.7953 19.0802 19.5728 18.7996 20.3342 19.2474C20.9047 19.5908 21.4587 19.9642 21.9939 20.3661C22.4991 20.7583 23.5338 21.6696 23.5371 21.6696C24.03 22.1088 24.1438 22.7537 23.8082 23.4338C23.8082 23.4378 23.8055 23.4446 23.8055 23.448C23.4359 24.1243 22.9667 24.7341 22.4154 25.2547C22.4089 25.2581 22.4089 25.2615 22.403 25.2649C21.9241 25.6873 21.4535 25.9274 20.9914 25.9852C20.9233 25.9978 20.8542 26.0024 20.7852 25.9988C20.5814 26.0009 20.3787 25.968 20.1849 25.9014L20.1698 25.8781C19.4579 25.6662 18.269 25.1357 16.2893 23.983C15.1437 23.3238 14.053 22.5633 13.0289 21.7098C12.5157 21.2822 12.0261 20.824 11.5625 20.3372L11.5131 20.285L11.4637 20.2329L11.4143 20.1802C11.3977 20.1632 11.3816 20.1456 11.3649 20.1281C10.9037 19.6388 10.4695 19.1221 10.0644 18.5803C9.2559 17.4996 8.53543 16.3486 7.91074 15.1397C6.81858 13.0496 6.31599 11.7959 6.11518 11.0433L6.09316 11.0275C6.03021 10.8229 5.9992 10.6089 6.00134 10.3938C5.99758 10.321 6.00173 10.248 6.01369 10.1762C6.07132 9.68959 6.29917 9.19275 6.69723 8.68572C6.70045 8.67948 6.70367 8.67948 6.70689 8.67268C7.19998 8.09082 7.77783 7.5957 8.41869 7.20598C8.42191 7.20598 8.42836 7.20258 8.43212 7.20258C9.07646 6.84837 9.68751 6.96851 10.1031 7.48594C10.1063 7.48934 10.9681 8.58144 11.3381 9.11473C11.7189 9.68018 12.0727 10.2654 12.398 10.8682C12.8222 11.6713 12.5564 12.4936 12.1398 12.8325L11.2994 13.5375C10.8752 13.8991 10.9311 14.5707 10.9311 14.5707C10.9311 14.5707 12.1757 19.5426 16.8263 20.7957Z" fill="white"/>
</svg>
