<svg width="17" height="17" viewBox="0 0 17 17" fill="none" xmlns="http://www.w3.org/2000/svg">
<path d="M6.5 3.83325H5.16667C4.79848 3.83325 4.5 4.13173 4.5 4.49992V12.4999C4.5 12.8681 4.79848 13.1666 5.16667 13.1666H6.5C6.86819 13.1666 7.16667 12.8681 7.16667 12.4999V4.49992C7.16667 4.13173 6.86819 3.83325 6.5 3.83325Z" stroke="#222222" stroke-linecap="round" stroke-linejoin="round"/>
<path d="M11.833 3.83325H10.4997C10.1315 3.83325 9.83301 4.13173 9.83301 4.49992V12.4999C9.83301 12.8681 10.1315 13.1666 10.4997 13.1666H11.833C12.2012 13.1666 12.4997 12.8681 12.4997 12.4999V4.49992C12.4997 4.13173 12.2012 3.83325 11.833 3.83325Z" stroke="#222222" stroke-linecap="round" stroke-linejoin="round"/>
</svg>
